<?xml version="1.0" encoding="UTF-8"?>
<svg xmlns="http://www.w3.org/2000/svg" width="1000" height="384" viewBox="0 0 1000 384" role="img">
<style>
  .m{font-family:ui-monospace,SFMono-Regular,"SF Mono",Menlo,Consolas,"Liberation Mono",monospace}
  .s{font-family:-apple-system,BlinkMacSystemFont,"Segoe UI",Roboto,Helvetica,Arial,sans-serif}
  @media (prefers-reduced-motion: no-preference){
    .bars{transform-origin:360px 0;animation:grow .9s cubic-bezier(.2,.8,.2,1) both}
    .vals{animation:fade .5s ease-out .55s both}
    @keyframes grow{from{transform:scaleX(0)}to{transform:scaleX(1)}}
    @keyframes fade{from{opacity:0}to{opacity:1}}
  }
</style>
<rect x="0.5" y="0.5" width="999" height="383" rx="9" fill="#0A0D10" stroke="#262B31"/>
<text x="28" y="44" class="s" font-size="19" font-weight="600" fill="#E7E9EC">Measured speedup</text>
<text x="28" y="67" class="m" font-size="11.5" fill="#7D858E">each result against the serial or FP32 baseline it replaced · 1.0× is the baseline</text>
<line x1="360" y1="102" x2="360" y2="336" stroke="#1B2026" stroke-width="1"/>
<text x="360" y="354" class="m" font-size="10.5" fill="#7D858E" text-anchor="middle">0×</text>
<line x1="451.6923076923077" y1="102" x2="451.6923076923077" y2="336" stroke="#1B2026" stroke-width="1"/>
<text x="451.6923076923077" y="354" class="m" font-size="10.5" fill="#7D858E" text-anchor="middle">1×</text>
<line x1="543.3846153846154" y1="102" x2="543.3846153846154" y2="336" stroke="#1B2026" stroke-width="1"/>
<text x="543.3846153846154" y="354" class="m" font-size="10.5" fill="#7D858E" text-anchor="middle">2×</text>
<line x1="635.0769230769231" y1="102" x2="635.0769230769231" y2="336" stroke="#1B2026" stroke-width="1"/>
<text x="635.0769230769231" y="354" class="m" font-size="10.5" fill="#7D858E" text-anchor="middle">3×</text>
<line x1="726.7692307692307" y1="102" x2="726.7692307692307" y2="336" stroke="#1B2026" stroke-width="1"/>
<text x="726.7692307692307" y="354" class="m" font-size="10.5" fill="#7D858E" text-anchor="middle">4×</text>
<line x1="818.4615384615386" y1="102" x2="818.4615384615386" y2="336" stroke="#1B2026" stroke-width="1"/>
<text x="818.4615384615386" y="354" class="m" font-size="10.5" fill="#7D858E" text-anchor="middle">5×</text>
<line x1="910.1538461538462" y1="102" x2="910.1538461538462" y2="336" stroke="#1B2026" stroke-width="1"/>
<text x="910.1538461538462" y="354" class="m" font-size="10.5" fill="#7D858E" text-anchor="middle">6×</text>
<line x1="360" y1="336" x2="956" y2="336" stroke="#262B31" stroke-width="1"/>
<line x1="451.6923076923077" y1="102" x2="451.6923076923077" y2="336" stroke="#9AA1A9" stroke-width="1" stroke-dasharray="3 3"/>
<text x="458.6923076923077" y="96" class="m" font-size="10" fill="#9AA1A9">baseline</text>
<text x="28" y="124" class="s" font-size="14" fill="#E7E9EC">MNIST inference</text>
<text x="28" y="140" class="m" font-size="10.5" fill="#7D858E">CUDA streams, kernel fusion, FP16 Tensor Cores</text>
<text x="28" y="170" class="s" font-size="14" fill="#E7E9EC">Canny edge detection</text>
<text x="28" y="186" class="m" font-size="10.5" fill="#7D858E">tiled shared memory, coalesced access</text>
<text x="28" y="216" class="s" font-size="14" fill="#E7E9EC">RNN training</text>
<text x="28" y="232" class="m" font-size="10.5" fill="#7D858E">automatic mixed precision, GPU-resident data</text>
<text x="28" y="262" class="s" font-size="14" fill="#E7E9EC">DiT training</text>
<text x="28" y="278" class="m" font-size="10.5" fill="#7D858E">REG/REPA vs a U-Net diffusion baseline</text>
<text x="28" y="308" class="s" font-size="14" fill="#E7E9EC">2D render loop</text>
<text x="28" y="324" class="m" font-size="10.5" fill="#7D858E">hand-written physics and collision, SFML</text>
<g class="bars"><path d="M360,114 H906.1538461538462 Q910.1538461538462,114 910.1538461538462,118 V130 Q910.1538461538462,134 906.1538461538462,134 H360 Z" fill="#E8571E"/><path d="M360,160 H676.9230769230769 Q680.9230769230769,160 680.9230769230769,164 V176 Q680.9230769230769,180 676.9230769230769,180 H360 Z" fill="#E8571E"/><path d="M360,206 H676.9230769230769 Q680.9230769230769,206 680.9230769230769,210 V222 Q680.9230769230769,226 676.9230769230769,226 H360 Z" fill="#E8571E"/><path d="M360,252 H475.2 Q479.2,252 479.2,256 V268 Q479.2,272 475.2,272 H360 Z" fill="#E8571E"/><path d="M360,298 H475.2 Q479.2,298 479.2,302 V314 Q479.2,318 475.2,318 H360 Z" fill="#E8571E"/></g>
<g class="vals"><text x="922.1538461538462" y="129" class="m" font-size="15" font-weight="600" fill="#E7E9EC">6.0×</text><text x="692.9230769230769" y="175" class="m" font-size="15" font-weight="600" fill="#E7E9EC">3.5×</text><text x="692.9230769230769" y="221" class="m" font-size="15" font-weight="600" fill="#E7E9EC">3.5×</text><text x="491.2" y="267" class="m" font-size="15" font-weight="600" fill="#E7E9EC">1.3×</text><text x="491.2" y="313" class="m" font-size="15" font-weight="600" fill="#E7E9EC">1.3×</text></g>
</svg>
